<svg width="1350" height="510" viewBox="0 0 1350 510" fill="none" xmlns="http://www.w3.org/2000/svg">
<path d="M414.154 0.248731C416.619 -0.145769 419.304 -0.264774 421.299 1.39673C426.039 5.34423 426.919 17.9167 428.059 24.0972C429.999 34.5797 431.999 45.0502 434.064 55.5082L460.469 189.248L481.724 297.163C484.669 312.073 489.689 332.183 491.664 346.858C488.489 350.953 478.549 360.638 474.464 364.898L436.169 404.513C428.144 412.723 420.234 421.043 412.449 429.478C407.424 434.903 402.564 440.773 397.099 445.733C393.199 449.273 351.509 455.978 343.739 457.508L145.627 498.093L111.503 505.218C104.545 506.708 95.6703 509.383 88.7743 509.508C85.9908 509.558 84.0958 508.088 82.3473 506.068C80.3503 501.383 79.0258 491.118 77.9918 485.853L70.5548 448.178L46.9228 328.758L15.6033 169.605L5.86882 121.251C3.96232 111.869 2.0128 102.433 0.322798 93.0112C-0.174702 90.2377 -0.259193 87.3447 1.26381 84.8727C2.34381 83.1197 5.0693 81.5942 7.0663 81.1907C26.2058 77.3237 45.4883 73.5467 64.6378 69.7957L164.424 50.0787L414.154 0.248731ZM173.652 234.105C156.86 238.618 144.302 245.185 135.143 260.88C127.178 274.408 124.996 290.573 129.089 305.728C133.425 321.648 142.528 332.843 156.61 341.148C182.407 356.358 210.152 343.438 237.016 339.288C244.824 338.083 252.854 335.703 260.674 334.488C277.824 330.923 294.989 327.453 312.174 324.083C325.034 321.543 346.424 318.298 357.394 313.018C367.369 308.248 375.819 300.803 381.804 291.508C390.279 278.512 393.834 261.696 390.579 246.456C387.284 231.286 378.009 218.087 364.849 209.852C350.939 201.006 337.564 199.745 321.679 202.337C320.399 198.527 319.114 194.696 317.524 191.002C306.049 164.316 274.399 144.799 245.199 147.311C213.892 150.671 188.968 168.305 177.931 198.582C173.449 210.878 173.327 221.258 173.652 234.105Z" fill="#1B232D"/>
<path d="M495.599 366.593C497.949 368.248 504.254 407.853 506.404 413.763C507.904 417.903 507.014 425.183 501.489 426.563C494.734 428.248 487.514 429.468 480.499 430.878L432.769 440.338C430.359 441.073 423.854 442.048 420.899 442.643C425.489 438.068 429.484 433.043 433.959 428.358C447.349 414.128 460.984 400.133 474.864 386.383C479.764 381.438 490.394 370.233 495.599 366.593Z" fill="#FA7314"/>
<path d="M533.752 240.096C536.056 236.341 539.043 233.397 542.712 231.264C546.467 229.131 550.733 228.064 555.512 228.064V246.88H550.776C545.144 246.88 540.877 248.203 537.976 250.848C535.16 253.493 533.752 258.101 533.752 264.672V300H515.832V229.088H533.752V240.096ZM599.07 301.152C592.243 301.152 586.099 299.659 580.638 296.672C575.177 293.6 570.867 289.291 567.71 283.744C564.638 278.197 563.102 271.797 563.102 264.544C563.102 257.291 564.681 250.891 567.838 245.344C571.081 239.797 575.475 235.531 581.022 232.544C586.569 229.472 592.755 227.936 599.582 227.936C606.409 227.936 612.595 229.472 618.142 232.544C623.689 235.531 628.041 239.797 631.198 245.344C634.441 250.891 636.062 257.291 636.062 264.544C636.062 271.797 634.398 278.197 631.07 283.744C627.827 289.291 623.39 293.6 617.758 296.672C612.211 299.659 605.982 301.152 599.07 301.152ZM599.07 285.536C602.313 285.536 605.342 284.768 608.158 283.232C611.059 281.611 613.363 279.221 615.07 276.064C616.777 272.907 617.63 269.067 617.63 264.544C617.63 257.803 615.838 252.64 612.254 249.056C608.755 245.387 604.446 243.552 599.326 243.552C594.206 243.552 589.897 245.387 586.398 249.056C582.985 252.64 581.278 257.803 581.278 264.544C581.278 271.285 582.942 276.491 586.27 280.16C589.683 283.744 593.95 285.536 599.07 285.536ZM681.719 243.808H669.303V300H651.127V243.808H643.063V229.088H651.127V225.504C651.127 216.8 653.602 210.4 658.551 206.304C663.5 202.208 670.967 200.288 680.951 200.544V215.648C676.599 215.563 673.57 216.288 671.863 217.824C670.156 219.36 669.303 222.133 669.303 226.144V229.088H681.719V243.808ZM724.82 301.152C717.993 301.152 711.849 299.659 706.388 296.672C700.927 293.6 696.617 289.291 693.46 283.744C690.388 278.197 688.852 271.797 688.852 264.544C688.852 257.291 690.431 250.891 693.588 245.344C696.831 239.797 701.225 235.531 706.772 232.544C712.319 229.472 718.505 227.936 725.332 227.936C732.159 227.936 738.345 229.472 743.892 232.544C749.439 235.531 753.791 239.797 756.948 245.344C760.191 250.891 761.812 257.291 761.812 264.544C761.812 271.797 760.148 278.197 756.82 283.744C753.577 289.291 749.14 293.6 743.508 296.672C737.961 299.659 731.732 301.152 724.82 301.152ZM724.82 285.536C728.063 285.536 731.092 284.768 733.908 283.232C736.809 281.611 739.113 279.221 740.82 276.064C742.527 272.907 743.38 269.067 743.38 264.544C743.38 257.803 741.588 252.64 738.004 249.056C734.505 245.387 730.196 243.552 725.076 243.552C719.956 243.552 715.647 245.387 712.148 249.056C708.735 252.64 707.028 257.803 707.028 264.544C707.028 271.285 708.692 276.491 712.02 280.16C715.433 283.744 719.7 285.536 724.82 285.536ZM792.877 240.096C795.181 236.341 798.168 233.397 801.837 231.264C805.592 229.131 809.858 228.064 814.637 228.064V246.88H809.901C804.269 246.88 800.002 248.203 797.101 250.848C794.285 253.493 792.877 258.101 792.877 264.672V300H774.957V229.088H792.877V240.096ZM854.483 227.936C859.774 227.936 864.424 229.003 868.435 231.136C872.446 233.184 875.603 235.872 877.907 239.2V229.088H895.955V300.512C895.955 307.083 894.632 312.928 891.987 318.048C889.342 323.253 885.374 327.349 880.083 330.336C874.792 333.408 868.392 334.944 860.883 334.944C850.814 334.944 842.536 332.597 836.051 327.904C829.651 323.211 826.024 316.811 825.171 308.704H842.963C843.902 311.947 845.907 314.507 848.979 316.384C852.136 318.347 855.934 319.328 860.371 319.328C865.576 319.328 869.8 317.749 873.043 314.592C876.286 311.52 877.907 306.827 877.907 300.512V289.504C875.603 292.832 872.403 295.605 868.307 297.824C864.296 300.043 859.688 301.152 854.483 301.152C848.51 301.152 843.048 299.616 838.099 296.544C833.15 293.472 829.224 289.163 826.323 283.616C823.507 277.984 822.099 271.541 822.099 264.288C822.099 257.12 823.507 250.763 826.323 245.216C829.224 239.669 833.107 235.403 837.971 232.416C842.92 229.429 848.424 227.936 854.483 227.936ZM877.907 264.544C877.907 260.192 877.054 256.48 875.347 253.408C873.64 250.251 871.336 247.861 868.435 246.24C865.534 244.533 862.419 243.68 859.091 243.68C855.763 243.68 852.691 244.491 849.875 246.112C847.059 247.733 844.755 250.123 842.963 253.28C841.256 256.352 840.403 260.021 840.403 264.288C840.403 268.555 841.256 272.309 842.963 275.552C844.755 278.709 847.059 281.141 849.875 282.848C852.776 284.555 855.848 285.408 859.091 285.408C862.419 285.408 865.534 284.597 868.435 282.976C871.336 281.269 873.64 278.88 875.347 275.808C877.054 272.651 877.907 268.896 877.907 264.544ZM979.377 263.008C979.377 265.568 979.206 267.872 978.865 269.92H927.025C927.452 275.04 929.244 279.051 932.401 281.952C935.558 284.853 939.441 286.304 944.049 286.304C950.705 286.304 955.441 283.445 958.257 277.728H977.585C975.537 284.555 971.612 290.187 965.809 294.624C960.006 298.976 952.881 301.152 944.433 301.152C937.606 301.152 931.462 299.659 926.001 296.672C920.625 293.6 916.401 289.291 913.329 283.744C910.342 278.197 908.849 271.797 908.849 264.544C908.849 257.205 910.342 250.763 913.329 245.216C916.316 239.669 920.497 235.403 925.873 232.416C931.249 229.429 937.436 227.936 944.433 227.936C951.174 227.936 957.19 229.387 962.481 232.288C967.857 235.189 971.996 239.328 974.897 244.704C977.884 249.995 979.377 256.096 979.377 263.008ZM960.817 257.888C960.732 253.28 959.068 249.611 955.825 246.88C952.582 244.064 948.614 242.656 943.921 242.656C939.484 242.656 935.729 244.021 932.657 246.752C929.67 249.397 927.836 253.109 927.153 257.888H960.817Z" fill="#1B232D"/>
<path d="M987.849 264.544C987.849 257.205 989.342 250.805 992.329 245.344C995.316 239.797 999.454 235.531 1004.75 232.544C1010.04 229.472 1016.09 227.936 1022.92 227.936C1031.71 227.936 1038.96 230.155 1044.68 234.592C1050.48 238.944 1054.37 245.088 1056.33 253.024H1037C1035.98 249.952 1034.23 247.563 1031.75 245.856C1029.36 244.064 1026.38 243.168 1022.79 243.168C1017.67 243.168 1013.62 245.045 1010.63 248.8C1007.65 252.469 1006.15 257.717 1006.15 264.544C1006.15 271.285 1007.65 276.533 1010.63 280.288C1013.62 283.957 1017.67 285.792 1022.79 285.792C1030.05 285.792 1034.78 282.549 1037 276.064H1056.33C1054.37 283.744 1050.48 289.845 1044.68 294.368C1038.88 298.891 1031.63 301.152 1022.92 301.152C1016.09 301.152 1010.04 299.659 1004.75 296.672C999.454 293.6 995.316 289.333 992.329 283.872C989.342 278.325 987.849 271.883 987.849 264.544ZM1087.38 205.28V300H1069.46V205.28H1087.38ZM1136.57 301.152C1129.74 301.152 1123.6 299.659 1118.14 296.672C1112.68 293.6 1108.37 289.291 1105.21 283.744C1102.14 278.197 1100.6 271.797 1100.6 264.544C1100.6 257.291 1102.18 250.891 1105.34 245.344C1108.58 239.797 1112.98 235.531 1118.52 232.544C1124.07 229.472 1130.26 227.936 1137.08 227.936C1143.91 227.936 1150.1 229.472 1155.64 232.544C1161.19 235.531 1165.54 239.797 1168.7 245.344C1171.94 250.891 1173.56 257.291 1173.56 264.544C1173.56 271.797 1171.9 278.197 1168.57 283.744C1165.33 289.291 1160.89 293.6 1155.26 296.672C1149.71 299.659 1143.48 301.152 1136.57 301.152ZM1136.57 285.536C1139.81 285.536 1142.84 284.768 1145.66 283.232C1148.56 281.611 1150.86 279.221 1152.57 276.064C1154.28 272.907 1155.13 269.067 1155.13 264.544C1155.13 257.803 1153.34 252.64 1149.75 249.056C1146.26 245.387 1141.95 243.552 1136.83 243.552C1131.71 243.552 1127.4 245.387 1123.9 249.056C1120.48 252.64 1118.78 257.803 1118.78 264.544C1118.78 271.285 1120.44 276.491 1123.77 280.16C1127.18 283.744 1131.45 285.536 1136.57 285.536ZM1253.65 229.088V300H1235.6V291.04C1233.3 294.112 1230.27 296.544 1226.52 298.336C1222.85 300.043 1218.84 300.896 1214.48 300.896C1208.94 300.896 1204.03 299.744 1199.76 297.44C1195.5 295.051 1192.13 291.595 1189.65 287.072C1187.26 282.464 1186.07 277.003 1186.07 270.688V229.088H1203.99V268.128C1203.99 273.76 1205.4 278.112 1208.21 281.184C1211.03 284.171 1214.87 285.664 1219.73 285.664C1224.68 285.664 1228.56 284.171 1231.38 281.184C1234.2 278.112 1235.6 273.76 1235.6 268.128V229.088H1253.65ZM1266.72 264.288C1266.72 257.12 1268.13 250.763 1270.95 245.216C1273.85 239.669 1277.77 235.403 1282.72 232.416C1287.67 229.429 1293.18 227.936 1299.24 227.936C1303.84 227.936 1308.24 228.96 1312.42 231.008C1316.6 232.971 1319.93 235.616 1322.4 238.944V205.28H1340.58V300H1322.4V289.504C1320.19 293.003 1317.07 295.819 1313.06 297.952C1309.05 300.085 1304.4 301.152 1299.11 301.152C1293.13 301.152 1287.67 299.616 1282.72 296.544C1277.77 293.472 1273.85 289.163 1270.95 283.616C1268.13 277.984 1266.72 271.541 1266.72 264.288ZM1322.53 264.544C1322.53 260.192 1321.68 256.48 1319.97 253.408C1318.27 250.251 1315.96 247.861 1313.06 246.24C1310.16 244.533 1307.04 243.68 1303.72 243.68C1300.39 243.68 1297.32 244.491 1294.5 246.112C1291.68 247.733 1289.38 250.123 1287.59 253.28C1285.88 256.352 1285.03 260.021 1285.03 264.288C1285.03 268.555 1285.88 272.309 1287.59 275.552C1289.38 278.709 1291.68 281.141 1294.5 282.848C1297.4 284.555 1300.47 285.408 1303.72 285.408C1307.04 285.408 1310.16 284.597 1313.06 282.976C1315.96 281.269 1318.27 278.88 1319.97 275.808C1321.68 272.651 1322.53 268.896 1322.53 264.544Z" fill="#FA7314"/>
</svg>
