<svg width="508" height="510" viewBox="0 0 508 510" fill="none" xmlns="http://www.w3.org/2000/svg">
<path d="M414.154 0.248731C416.619 -0.145769 419.304 -0.264774 421.299 1.39673C426.039 5.34423 426.919 17.9167 428.059 24.0972C429.999 34.5797 431.999 45.0502 434.064 55.5082L460.469 189.248L481.724 297.163C484.669 312.073 489.689 332.183 491.664 346.858C488.489 350.953 478.549 360.638 474.464 364.898L436.169 404.513C428.144 412.723 420.234 421.043 412.449 429.478C407.424 434.903 402.564 440.773 397.099 445.733C393.199 449.273 351.509 455.978 343.739 457.508L145.627 498.093L111.503 505.218C104.545 506.708 95.6703 509.383 88.7743 509.508C85.9908 509.558 84.0958 508.088 82.3473 506.068C80.3503 501.383 79.0258 491.118 77.9918 485.853L70.5548 448.178L46.9228 328.758L15.6033 169.605L5.86882 121.251C3.96232 111.869 2.0128 102.433 0.322798 93.0112C-0.174702 90.2377 -0.259193 87.3447 1.26381 84.8727C2.34381 83.1197 5.0693 81.5942 7.0663 81.1907C26.2058 77.3237 45.4883 73.5467 64.6378 69.7957L164.424 50.0787L414.154 0.248731ZM173.652 234.105C156.86 238.618 144.302 245.185 135.143 260.88C127.178 274.408 124.996 290.573 129.089 305.728C133.425 321.648 142.528 332.843 156.61 341.148C182.407 356.358 210.152 343.438 237.016 339.288C244.824 338.083 252.854 335.703 260.674 334.488C277.824 330.923 294.989 327.453 312.174 324.083C325.034 321.543 346.424 318.298 357.394 313.018C367.369 308.248 375.819 300.803 381.804 291.508C390.279 278.512 393.834 261.696 390.579 246.456C387.284 231.286 378.009 218.087 364.849 209.852C350.939 201.006 337.564 199.745 321.679 202.337C320.399 198.527 319.114 194.696 317.524 191.002C306.049 164.316 274.399 144.799 245.199 147.311C213.892 150.671 188.968 168.305 177.931 198.582C173.449 210.878 173.327 221.258 173.652 234.105Z" fill="#1B232D"/>
<path d="M495.599 366.593C497.949 368.248 504.254 407.853 506.404 413.763C507.904 417.903 507.014 425.183 501.489 426.563C494.734 428.248 487.514 429.468 480.499 430.878L432.769 440.338C430.359 441.073 423.854 442.048 420.899 442.643C425.489 438.068 429.484 433.043 433.959 428.358C447.349 414.128 460.984 400.133 474.864 386.383C479.764 381.438 490.394 370.233 495.599 366.593Z" fill="#FA7314"/>
</svg>
